<?xml version="1.0" encoding="UTF-8" standalone="no"?>
<!-- Created with Inkscape (http://www.inkscape.org/) -->

<svg
   width="80"
   height="30"
   viewBox="0 0 21.166666 7.9374999"
   version="1.1"
   id="svg5"
   xmlns="http://www.w3.org/2000/svg"
   xmlns:svg="http://www.w3.org/2000/svg">
  <defs
     id="defs2" />
  <g
     id="layer1">
    <g
       id="g1971"
       transform="translate(0.65481034,0.51449384)"
       style="fill:#ffffff">
      <path
         d="M 6.4826132,5.8831491 H 5.2726351 L 3.079086,2.5238102 Q 2.8860833,2.2292622 2.8118515,2.080124 h -0.014846 q 0.029693,0.2833626 0.029693,0.8650017 V 5.8831491 H 1.6946631 V 0.53654311 H 2.9862962 L 5.0981906,3.7914853 q 0.144751,0.2199788 0.2672343,0.4362293 h 0.014846 Q 5.3505784,4.0412917 5.3505784,3.4932088 V 0.53654311 h 1.1320348 z"
         id="path470"
         style="font-weight:bold;font-size:5.41668px;font-family:'Microsoft Tai Le';-inkscape-font-specification:'Microsoft Tai Le, Bold';fill:#ffffff;stroke-width:0.634881" />
      <path
         d="m 8.0644732,5.9867732 q -0.6531455,0 -1.0281939,-0.392078 -0.372497,-0.3948199 -0.372497,-1.0693038 0,-0.6964183 0.3878051,-1.0884965 0.3878051,-0.3948198 1.0486047,-0.3948198 0.650594,0 1.0205396,0.3948198 0.3699457,0.3920782 0.3699457,1.039144 0,0.6991602 -0.3827024,1.1049473 -0.380151,0.405787 -1.0435018,0.405787 z m 0.020411,-2.2811814 q -0.2857511,0 -0.4439347,0.211119 -0.1581837,0.211119 -0.1581837,0.5977134 0,0.8088323 0.6072211,0.8088323 0.5791564,0 0.5791564,-0.8307667 0,-0.786898 -0.5842591,-0.786898 z"
         id="path472"
         style="font-weight:bold;font-size:5.41668px;font-family:'Microsoft Tai Le';-inkscape-font-specification:'Microsoft Tai Le, Bold';fill:#ffffff;stroke-width:0.451389" />
      <path
         d="m 11.592989,5.8853265 q -0.178594,0.1014468 -0.538335,0.1014468 -0.85215,0 -0.85215,-0.9514061 V 3.7494608 H 9.7789801 V 3.1106202 H 10.202504 V 2.5046815 L 11.006179,2.257919 v 0.8527012 h 0.58681 v 0.6388406 h -0.58681 v 1.135107 q 0,0.4386887 0.324021,0.4386887 0.127568,0 0.262789,-0.079512 z"
         id="path474"
         style="font-weight:bold;font-size:5.41668px;font-family:'Microsoft Tai Le';-inkscape-font-specification:'Microsoft Tai Le, Bold';fill:#ffffff;stroke-width:0.451389" />
      <path
         d="m 12.455129,2.6667575 q -0.204108,0 -0.334227,-0.1288649 -0.130118,-0.1316066 -0.130118,-0.3207911 0,-0.1946682 0.130118,-0.3180493 0.130119,-0.1233813 0.334227,-0.1233813 0.206659,0 0.334227,0.1233813 0.130118,0.1233811 0.130118,0.3180493 0,0.1974099 -0.130118,0.3235329 -0.127568,0.1261231 -0.334227,0.1261231 z M 12.85314,5.9185377 H 12.046913 V 3.1109298 h 0.806227 z"
         id="path476"
         style="font-weight:bold;font-size:5.41668px;font-family:'Microsoft Tai Le';-inkscape-font-specification:'Microsoft Tai Le, Bold';fill:#ffffff;stroke-width:0.451389" />
      <path
         d="m 15.515452,5.8258902 q -0.272994,0.1699919 -0.788366,0.1699919 -0.602119,0 -0.974616,-0.392078 -0.372497,-0.3920781 -0.372497,-1.0117259 0,-0.715611 0.39801,-1.1268817 0.400562,-0.4140126 1.069016,-0.4140126 0.461794,0 0.668453,0.1316067 v 0.7348036 q -0.252583,-0.2028936 -0.563848,-0.2028936 -0.346984,0 -0.551092,0.2193445 -0.201556,0.2166025 -0.201556,0.6004551 0,0.3728854 0.193902,0.5867463 0.193903,0.2111189 0.533233,0.2111189 0.301059,0 0.589361,-0.2028935 z"
         id="path478"
         style="font-weight:bold;font-size:5.41668px;font-family:'Microsoft Tai Le';-inkscape-font-specification:'Microsoft Tai Le, Bold';fill:#ffffff;stroke-width:0.451389" />
      <path
         d="m 18.383076,4.7309849 h -1.704302 q 0.04082,0.6114224 0.71693,0.6114224 0.431178,0 0.75775,-0.2193444 v 0.6251314 q -0.362291,0.2083772 -0.941447,0.2083772 -0.632736,0 -0.982271,-0.3756272 -0.349534,-0.3783691 -0.349534,-1.052853 0,-0.6991601 0.3776,-1.107689 0.377599,-0.408529 0.928691,-0.408529 0.571502,0 0.882767,0.3646601 0.313816,0.36466 0.313816,0.9897915 z M 17.63553,4.1990748 q 0,-0.603197 -0.45414,-0.603197 -0.193902,0 -0.336778,0.1727337 -0.140324,0.1727337 -0.170941,0.4304633 z"
         id="path480"
         style="font-weight:bold;font-size:5.41668px;font-family:'Microsoft Tai Le';-inkscape-font-specification:'Microsoft Tai Le, Bold';fill:#ffffff;stroke-width:0.451389" />
      <ellipse
         style="fill:#ffffff;stroke-width:0.264583"
         id="path1626"
         cx="8.0857382"
         cy="4.5369"
         rx="0.2864795"
         ry="0.28063297" />
    </g>
  </g>
</svg>
